<?xml version="1.0" standalone="no"?><!DOCTYPE svg PUBLIC "-//W3C//DTD SVG 1.1//EN" "http://www.w3.org/Graphics/SVG/1.1/DTD/svg11.dtd"><svg t="1562904627089" class="icon" viewBox="0 0 1084 1024" version="1.1" xmlns="http://www.w3.org/2000/svg" p-id="11079" width="67.75" height="64" xmlns:xlink="http://www.w3.org/1999/xlink"><defs><style type="text/css"></style></defs><path d="M494.405123 12.604198c-37.958307 0-4.735681 11.729918-25.208396 14.644183s26.884098-2.914265-34.388331 8.742797-73.803771 90.415084-76.718037 119.630594c-2.914265 29.21551-3.642832 38.32259-1.675702 82.03657 5.828531 26.301245-23.678406 26.301245-23.678407 26.301245-36.719744-2.404269-42.985414 111.980647-42.985414 111.980648 5.318534 28.195518-1.894273 42.256848 52.456777 64.040982 25.864105 73.803771 91.726503 111.033511 91.726503 111.033511s3.278549 47.283956 4.298541 80.943721c-5.464248-2.768552-9.544219 86.043686-178.425898 110.960655S58.649591 822.478549 26.811242 853.005478c-31.838349 30.381217-26.519815 170.994522-26.519815 170.994522h1084.325293s-6.92138-140.540448-38.75973-170.994522c-31.838349-30.454073-66.518107-85.169406-235.32693-110.086374s-157.151761-111.324938-158.24461-116.570616c0.291427-13.259908 6.192814-69.578086 6.192814-69.578086s54.351049-45.24397 80.288011-118.974884c40.726859-25.718392 56.245322-29.288367 63.020989-58.941018 0 0 18.287015-112.053504-25.499822-112.053504 0 0-50.125365 2.987122-44.223977-23.314123 5.828531-26.228388 3.861402-35.408324 0.947136-64.550978S747.727641 66.372394 686.455212 54.642476c-41.819708-7.722803-28.486944 4.079972-48.886802 1.165706S592.834436 0 554.948986 0l-60.543863 12.604198z" p-id="11080" fill="#bfbfbf"></path></svg>