<?xml version="1.0" standalone="no"?><!DOCTYPE svg PUBLIC "-//W3C//DTD SVG 1.1//EN" "http://www.w3.org/Graphics/SVG/1.1/DTD/svg11.dtd"><svg t="1561967808974" class="icon" viewBox="0 0 1024 1024" version="1.1" xmlns="http://www.w3.org/2000/svg" p-id="20065" width="16" height="16" xmlns:xlink="http://www.w3.org/1999/xlink"><defs><style type="text/css"></style></defs><path d="M510.904 219.197L191.217 531.21a20.47 20.47 0 0 0-0.318 28.959 20.398 20.398 0 0 0 28.959 0.317l270.577-264.105v579.595c0 11.32 9.16 20.48 20.48 20.48s20.48-9.16 20.48-20.48V296.38L801.97 560.486a20.47 20.47 0 0 0 28.959-0.317 20.48 20.48 0 0 0-0.318-28.959L510.904 219.197z m351.97-76.154H158.94c-11.32 0-20.48 9.16-20.48 20.48s9.16 20.48 20.48 20.48h703.934c11.32 0 20.48-9.16 20.48-20.48s-9.16-20.48-20.48-20.48z" p-id="20066" fill="#9f9f9f"></path></svg>