<?xml version="1.0" standalone="no"?><!DOCTYPE svg PUBLIC "-//W3C//DTD SVG 1.1//EN" "http://www.w3.org/Graphics/SVG/1.1/DTD/svg11.dtd"><svg t="1562596634781" class="icon" viewBox="0 0 1024 1024" version="1.1" xmlns="http://www.w3.org/2000/svg" p-id="7404" width="32" height="32" xmlns:xlink="http://www.w3.org/1999/xlink"><defs><style type="text/css"></style></defs><path d="M898.335441 304.043714 666.704966 72.41324c-0.542352-0.542352-1.113357-1.057075-1.707898-1.543146-0.046049-0.037862-0.094144-0.072655-0.141216-0.110517-0.542352-0.436952-1.103124-0.851391-1.684362-1.238201-0.076748-0.051165-0.154519-0.099261-0.232291-0.149403-0.556679-0.361227-1.127683-0.700965-1.716084-1.014096-0.081864-0.044002-0.164752-0.083911-0.24764-0.12689-0.589424-0.303922-1.191128-0.585331-1.808182-0.839111-0.068562-0.028653-0.138146-0.054235-0.207731-0.081864-0.62831-0.25071-1.269923-0.476861-1.923816-0.673335-0.051165-0.01535-0.102331-0.028653-0.152473-0.042979-0.662079-0.193405-1.335415-0.35918-2.02103-0.493234-0.039909-0.008186-0.079818-0.014326-0.12075-0.021489-0.684592-0.12996-1.378393-0.232291-2.082428-0.300852-0.032746-0.00307-0.066515-0.004093-0.099261-0.007163-0.704035-0.064468-1.416256-0.102331-2.136663-0.102331s-1.432629 0.037862-2.136663 0.102331c-0.032746 0.00307-0.066515 0.004093-0.099261 0.007163-0.705058 0.067538-1.400906 0.170892-2.085498 0.300852-0.037862 0.007163-0.076748 0.013303-0.11461 0.020466-0.687662 0.134053-1.362021 0.300852-2.026146 0.494257-0.049119 0.014326-0.098237 0.027629-0.147356 0.041956-0.655939 0.196475-1.298576 0.422625-1.927909 0.674359-0.068562 0.027629-0.1361 0.053212-0.204661 0.080841-0.618077 0.25378-1.221828 0.536212-1.811252 0.840134-0.081864 0.041956-0.163729 0.082888-0.245593 0.125867-0.588401 0.313132-1.159406 0.652869-1.716084 1.014096-0.077771 0.050142-0.156566 0.098237-0.234337 0.150426-0.579191 0.385786-1.137916 0.798179-1.678222 1.234107-0.049119 0.039909-0.099261 0.075725-0.147356 0.115634-0.590448 0.483001-1.156336 0.99363-1.695618 1.531889-0.00307 0.00307-0.00614 0.005117-0.008186 0.008186-0.00307 0.00307-0.005117 0.00614-0.008186 0.008186-0.538259 0.538259-1.047866 1.104147-1.530866 1.693572-0.041956 0.051165-0.080841 0.104377-0.122797 0.155543-0.432859 0.538259-0.844228 1.093914-1.227967 1.670036-0.053212 0.079818-0.103354 0.161682-0.155543 0.242524-0.35918 0.552585-0.695848 1.12052-1.007957 1.704828-0.045025 0.085958-0.088004 0.171915-0.132006 0.257873-0.302899 0.586354-0.582261 1.184989-0.835018 1.798972-0.029676 0.071631-0.056282 0.143263-0.084934 0.214894-0.25071 0.626263-0.475837 1.26583-0.671289 1.918699-0.01535 0.052189-0.029676 0.105401-0.045025 0.157589-0.193405 0.661056-0.35918 1.333368-0.493234 2.01796-0.008186 0.039909-0.013303 0.079818-0.021489 0.12075-0.12996 0.683569-0.232291 1.37737-0.300852 2.081405-0.00307 0.034792-0.005117 0.068562-0.008186 0.103354-0.064468 0.703011-0.102331 1.414209-0.102331 2.134617l0 846.614987c0 12.716626 10.307763 23.024389 23.024389 23.024389s23.024389-10.307763 23.024389-23.024389L673.445484 144.277988l192.325283 192.326307c4.497431 4.496407 10.387581 6.743588 16.280802 6.743588 5.892197 0 11.785417-2.248204 16.280802-6.743588C907.326209 327.613526 907.326209 313.035506 898.335441 304.043714z" p-id="7405" fill="#3190E8"></path><path d="M390.924969 949.730483c0.432859-0.537236 0.842181-1.092891 1.225921-1.667989 0.055259-0.081864 0.105401-0.165776 0.159636-0.248663 0.357134-0.551562 0.693802-1.11745 1.003863-1.699712 0.046049-0.086981 0.090051-0.176009 0.135076-0.26299 0.301875-0.584308 0.580215-1.180895 0.831948-1.792832 0.030699-0.073678 0.058328-0.148379 0.088004-0.223081 0.248663-0.624217 0.472767-1.25969 0.668219-1.909489 0.016373-0.056282 0.031722-0.112564 0.048095-0.167822 0.191358-0.657986 0.357134-1.326205 0.490164-2.006703 0.00921-0.045025 0.01535-0.091074 0.024559-0.1361 0.128937-0.679475 0.230244-1.36816 0.297782-2.067079 0.004093-0.039909 0.005117-0.078795 0.00921-0.118704 0.064468-0.698918 0.101307-1.404999 0.101307-2.12029 0-0.001023 0-0.00307 0-0.004093L396.008754 88.691995c0-12.715603-10.308787-23.024389-23.024389-23.024389s-23.024389 10.308787-23.024389 23.024389l0 791.028994L157.632645 687.395706c-8.990768-8.991792-23.569812-8.991792-32.561603 0-8.991792 8.991792-8.991792 23.569812 0 32.561603l231.630475 231.629451c0.541329 0.541329 1.111311 1.055029 1.703805 1.540076 0.050142 0.040932 0.102331 0.079818 0.152473 0.119727 0.538259 0.432859 1.094938 0.844228 1.671059 1.228991 0.080841 0.054235 0.163729 0.104377 0.245593 0.157589 0.551562 0.358157 1.118474 0.694825 1.700735 1.004887 0.088004 0.047072 0.176009 0.090051 0.264013 0.135076 0.583285 0.300852 1.179872 0.580215 1.790786 0.830925 0.074701 0.030699 0.150426 0.059352 0.225127 0.089028 0.623193 0.248663 1.25969 0.472767 1.908466 0.667196 0.055259 0.016373 0.11154 0.031722 0.166799 0.047072 0.657986 0.191358 1.327228 0.357134 2.007727 0.490164 0.044002 0.00921 0.089028 0.01535 0.13303 0.023536 0.680499 0.128937 1.369184 0.231267 2.069125 0.298805 0.038886 0.004093 0.076748 0.005117 0.115634 0.00921 0.699941 0.064468 1.408069 0.101307 2.125407 0.101307s1.425466-0.036839 2.125407-0.101307c0.038886-0.00307 0.076748-0.005117 0.115634-0.00921 0.699941-0.067538 1.388627-0.169869 2.069125-0.298805 0.045025-0.008186 0.089028-0.01535 0.134053-0.023536 0.680499-0.13303 1.349741-0.298805 2.007727-0.490164 0.056282-0.016373 0.11154-0.030699 0.167822-0.048095 0.648776-0.194428 1.284249-0.418532 1.907443-0.667196 0.075725-0.029676 0.150426-0.058328 0.226151-0.089028 0.610914-0.25071 1.206478-0.530073 1.789763-0.830925 0.089028-0.046049 0.178055-0.089028 0.267083-0.1361 0.581238-0.310062 1.146103-0.645706 1.696642-1.00284 0.082888-0.054235 0.167822-0.105401 0.25071-0.160659 0.574075-0.382717 1.127683-0.792039 1.663896-1.222851 0.053212-0.042979 0.10847-0.082888 0.160659-0.12689 0.588401-0.481977 1.154289-0.991584 1.691525-1.528819 0.00307-0.00307 0.00614-0.005117 0.008186-0.008186 0.00307-0.00307 0.005117-0.00614 0.008186-0.008186 0.538259-0.538259 1.047866-1.104147 1.529843-1.693572C390.845151 949.83486 390.884037 949.782671 390.924969 949.730483z" p-id="7406" fill="#3190E8"></path></svg>