<?xml version="1.0" standalone="no"?><!DOCTYPE svg PUBLIC "-//W3C//DTD SVG 1.1//EN" "http://www.w3.org/Graphics/SVG/1.1/DTD/svg11.dtd"><svg t="1562768354337" class="icon" viewBox="0 0 1024 1024" version="1.1" xmlns="http://www.w3.org/2000/svg" p-id="14564" width="32" height="32" xmlns:xlink="http://www.w3.org/1999/xlink"><defs><style type="text/css"></style></defs><path d="M63.602484 1024c-19.080745 0-31.801242-6.360248-44.521739-19.080745-25.440994-25.440994-25.440994-63.602484 0-89.043479l890.434783-890.434782c25.440994-25.440994 63.602484-25.440994 89.043478 0s25.440994 63.602484 0 89.043478l-890.434782 890.434783c-12.720497 12.720497-25.440994 19.080745-44.52174 19.080745z" p-id="14565" fill="#333333"></path><path d="M954.037267 1024c-19.080745 0-31.801242-6.360248-44.521739-19.080745l-890.434783-890.434783C-6.360248 89.043478-6.360248 50.881988 19.080745 25.440994s63.602484-25.440994 89.043479 0l890.434782 890.434782c25.440994 25.440994 25.440994 63.602484 0 89.043479-12.720497 12.720497-25.440994 19.080745-44.521739 19.080745z" p-id="14566" fill="#333333"></path></svg>