<?xml version="1.0" standalone="no"?><!DOCTYPE svg PUBLIC "-//W3C//DTD SVG 1.1//EN" "http://www.w3.org/Graphics/SVG/1.1/DTD/svg11.dtd"><svg t="1564062401279" class="icon" viewBox="0 0 1248 1024" version="1.1" xmlns="http://www.w3.org/2000/svg" p-id="1796" width="78" height="64" xmlns:xlink="http://www.w3.org/1999/xlink"><defs><style type="text/css"></style></defs><path d="M1084.796878 474.374244l38.412488-22.234537c2.266537 19.56839 3.434146 39.461463 3.434146 59.610537 0 282.624-228.676683 511.731512-510.751219 511.731512a507.835317 507.835317 0 0 1-305.195708-101.338536l38.4-22.197074a467.587122 467.587122 0 0 0 266.795708 83.068878c259.777561 0 470.359415-210.981463 470.359414-471.26478 0-12.581463-0.487024-25.050537-1.454829-37.376zM917.803707 150.353171a467.943024 467.943024 0 0 0-301.892683-109.880195c-259.80878 0-470.403122 211.006439-470.403122 471.302244 0 27.722927 2.403902 54.902634 6.986927 81.308097l-37.08878 21.429073a515.059512 515.059512 0 0 1-10.296195-102.762146C105.109854 229.113756 333.786537 0 615.911024 0c130.066732 0 248.794537 48.727415 338.950244 128.942829l-37.057561 21.416586zM0.018732 681.272195l1066.989268-617.209756L1248.780488 379.516878l-1067.001756 617.209756L0 681.272195h0.018732z m189.15278 287.800195l1032.017171-596.967024-161.579707-280.394927L27.598049 688.683707l161.579707 280.388683z m428.394147-39.82361v-20.236487c13.230829 0 26.361756-0.649366 39.386536-1.923122l1.979317 20.130341c-13.692878 1.361171-27.473171 2.029268-41.347122 2.029268h-0.018731z m82.407024-8.179512l-3.996098-19.830634a390.974439 390.974439 0 0 0 38.168976-9.734244l5.937951 19.349854a418.072976 418.072976 0 0 1-40.110829 10.215024z m79.903219-24.807024l-7.898536-18.619317a400.252878 400.252878 0 0 0 35.402927-17.239415l9.740487 17.726439a410.580293 410.580293 0 0 1-37.244878 18.132293z m72.304391-39.767415l-11.413854-16.689951a395.701073 395.701073 0 0 0 31.306927-23.939122l13.049756 15.478634a425.959024 425.959024 0 0 1-32.917854 25.150439h-0.024975z m64.106146-54.378146l-14.535805-14.055024a397.474341 397.474341 0 0 0 25.912195-29.708488l15.853269 12.550244a418.697366 418.697366 0 0 1-27.223415 31.219512z m50.57561-64l-16.983415-10.951805a396.275512 396.275512 0 0 0 19.630829-34.19161l17.982439 9.184781a409.562537 409.562537 0 0 1-20.629853 35.958634z m37.850536-74.552195l-18.825365-7.28039a397.411902 397.411902 0 0 0 12.362926-37.475903l19.468488 5.369756a410.049561 410.049561 0 0 1-13.006049 39.386537z m22.15961-80.939708l-19.918049-3.346731c2.16039-12.949854 3.69639-26.018341 4.564293-39.192976l20.161561 1.336195a418.004293 418.004293 0 0 1-4.807805 41.203512z m-197.619512-426.908097l-10.321171 17.401756a392.885073 392.885073 0 0 0-34.816-18.432l8.522927-18.357073a420.913951 420.913951 0 0 1 36.614244 19.387317z m-75.757268-35.253073l-6.618537 19.125073a389.975415 389.975415 0 0 0-37.794341-11.026732l4.645463-19.693268a414.763707 414.763707 0 0 1 39.773659 11.594927z m-81.601561-19.281171l-2.622439 20.055415a398.423415 398.423415 0 0 0-39.242927-3.159415L630.634146 97.841951a424.273171 424.273171 0 0 1 41.278439 3.340488h-0.018731z m-83.574634-2.510049l1.411121 20.174049a395.40761 395.40761 0 0 0-39.105561 4.695415l-3.40917-19.930537a414.301659 414.301659 0 0 1 41.10361-4.932683z m-81.820098 14.048781l5.394732 19.505951a383.238244 383.238244 0 0 0-37.369756 12.425366l-7.305366-18.862829a411.029854 411.029854 0 0 1 39.274146-13.074732z m-77.155902 30.045658l9.191024 18.032391c-11.719805 5.994146-23.108683 12.550244-34.154146 19.668292l-10.908098-17.045853a407.064976 407.064976 0 0 1 35.889951-20.636098l-0.018731-0.018732z m-70.212683 45.330732l12.587707 15.822049a397.674146 397.674146 0 0 0-29.546146 26.099512l-14.08-14.504585a416.65561 416.65561 0 0 1 31.038439-27.410732z m-59.479415 58.074537l15.453658 13.031024a397.42439 397.42439 0 0 0-23.789268 31.450537l-16.689951-11.413854a416.942829 416.942829 0 0 1 25.025561-33.048976v-0.018731z m-46.429659 68.058536l17.707708 9.709268a389.294829 389.294829 0 0 0-17.127025 35.534049l-18.600585-7.892292a412.484683 412.484683 0 0 1 18.019902-37.357269z m-32.48078 77.155903l19.306146 5.931707a393.628098 393.628098 0 0 0-9.634341 38.243902l-19.793171-3.939902c2.684878-13.605463 6.081561-27.02361 10.115122-40.235707z m-16.321561 82.481951l20.117854 1.929366a398.897951 398.897951 0 0 0-1.754537 40.067122l-20.199024 0.118634v-3.21561c0-13.031024 0.62439-26.005854 1.835707-38.899512z m227.427902 411.523122l9.053659-18.088586a395.950829 395.950829 0 0 0 36.046049 15.890732l-7.192976 18.919024a413.483707 413.483707 0 0 1-37.906732-16.72117z m78.167415 29.752195l5.226146-19.543415c12.643902 3.390439 25.493854 6.168976 38.499903 8.285659l-3.234342 19.955512a412.846829 412.846829 0 0 1-40.491707-8.697756z m82.925268 13.393171l1.192586-20.192781c7.636293 0.437073 15.32878 0.668098 23.027512 0.668098v20.230244c-8.117073 0-16.177951-0.237268-24.220098-0.705561zM493.45561 604.216195l-130.135415 75.276488 36.358244 63.069658c4.970146 8.622829 11.713561 10.633366 20.317659 5.650732l107.451317-62.164293c4.645463-2.67239 7.898537-6.25639 9.372097-10.46478 1.617171-5.969171-3.633951-20.904585-15.915707-44.643902l17.370536-3.858732c12.924878 27.298341 18.519415 44.8 17.064586 52.935805-2.072976 7.080585-7.049366 13.031024-15.185171 18.313366L424.273171 765.352585c-15.959415 9.228488-28.55961 5.307317-38.012878-11.08917l-63.862634-110.829269 15.110243-8.741463 17.445464 30.289171 114.825366-66.410147-31.625366-54.908878-141.268293 81.713951-8.485463-14.710634 156.578341-90.574048 48.471415 84.124097z m7.673756-127.550439c20.70478 2.890927 39.086829 7.118049 55.04 12.462829l-4.483122 17.464195c-14.785561-5.74439-33.205073-10.520976-55.339707-13.961365l4.782829-15.965659z m234.883122 112.309073c-11.982049 6.918244-25.106732 14.22361-39.286634 22.15961-14.404683 8.029659-26.661463 13.45561-36.620488 16.128-10.258732 2.572488-21.060683 1.816976-32.131122-1.885659-5.013854-1.879415-8.910049-1.860683-11.63239-0.280975-5.057561 2.915902-8.085854 17.570341-8.441756 44.138146l-17.152-3.546536c0.91161-24.625951 4.483122-41.272195 11.114146-50.163513l-36.726634-63.725268-30.208 17.482927-8.241951-14.279805 44.693853-25.868488 45.443122 78.860488c2.422634 0.280976 5.15122 0.668098 8.241951 1.685854 8.004683 2.647415 16.427707 3.765073 24.838244 3.29678 8.30439-1.155122 19.23122-5.525854 32.480781-12.62517a2764.924878 2764.924878 0 0 0 43.482536-24.594732c9.234732-5.338537 18.357073-10.883122 28.016391-16.465171 9.309659-5.669463 16.546341-10.140098 21.32917-13.480585l5.070049 17.545366-44.269268 25.618731z m-22.540488-24.54478l-29.814634 17.233171-11.713561-12.556488c10.021463-4.957659 19.712-10.002732 28.522146-15.097756 5.875512-3.402927 7.330341-8.179512 4.039805-13.848976l-51.512195-89.37522-79.310049 45.892683-8.604097-14.935414 79.335024-45.892683-19.637073-34.060488 15.335024-8.866341 19.63083 34.060487 31.063414-17.969951 8.604098 14.935415-31.063415 17.969951 53.566439 92.965463c7.02439 12.181854 4.139707 22.259512-8.448 29.546147z m-106.146341-62.264195c22.421854 7.786146 40.585366 15.516098 54.49678 23.164878l-7.330341 15.44117c-14.823024-8.241951-32.905366-16.290341-54.534244-24.245073l7.367805-14.360975z m102.812097-149.466537l14.685659-8.504195 13.574244 23.552 40.916292-23.66439-13.330731-23.133659 14.70439-8.504195 13.330731 23.133659 12.581464-7.286635 8.123317 14.086244L802.129171 349.658537l51.262439 88.963122 13.636683-7.892293 8.241951 14.298536-99.278049 57.437659-8.241951-14.304781 15.316293-8.866341-51.262439-88.956878-13.006049 7.530146-8.117073-14.086244 13.006048-7.530146-13.574244-23.552h0.018732zM797.770927 470.790244l40.922536-23.676878-11.882146-20.604878-40.922537 23.683122 11.882147 20.598634z m-10.346147-112.64l-40.916292 23.676878 12.113171 21.048195 40.92878-23.676878-12.125659-21.041951z m-9.166048 78.779317l40.922536-23.66439-12.00078-20.829659-40.922537 23.676878 12.000781 20.842147v-0.024976z m68.058536 32.14361c17.133268 6.918244 31.113366 13.699122 41.671805 19.905561 2.584976-27.579317-4.63922-56.195122-21.204293-85.878634l-56.713365-98.403903 69.681951-40.316878 95.007219 164.864c6.905756 12.00078 4.139707 21.72878-8.035902 28.778146l-22.259512 12.868683-12.806244-12.506536c8.023415-4.046049 15.39122-7.767415 22.115902-11.657366 5.457171-3.153171 6.36878-7.892293 2.728586-14.204878l-24.850732-43.101659-40.710244 23.552c13.049756 29.47122 17.870049 57.23161 14.679415 83.761952l-17.732683-4.046049c0.199805-0.668098 0.14361-1.217561 0.124878-1.748293l-6.524878 14.417171c-11.63239-7.573854-25.974634-14.985366-42.695805-22.122147l7.511414-14.16117h0.018732z m-41.053658 23.470829l15.547317-1.155122c0.749268 19.749463-0.842927 38.343805-4.907707 55.570732l-16.939708-1.717073c4.558049-16.377756 6.762146-33.923122 6.300098-52.698537z m57.156683-131.496585l18.54439 32.174829c1.086439 1.90439 1.860683 3.702634 2.822244 5.388488l39.873561-23.07122-21.572683-37.438439-39.667512 22.946342z m31.669073-36.832781l-21.210537-36.782829-39.661268 22.946341 21.204293 36.789074 39.667512-22.952586z" p-id="1797" fill="#999999"></path></svg>