<?xml version="1.0" standalone="no"?><!DOCTYPE svg PUBLIC "-//W3C//DTD SVG 1.1//EN" "http://www.w3.org/Graphics/SVG/1.1/DTD/svg11.dtd"><svg t="1562597006109" class="icon" viewBox="0 0 1024 1024" version="1.1" xmlns="http://www.w3.org/2000/svg" p-id="13142" xmlns:xlink="http://www.w3.org/1999/xlink" width="32" height="32"><defs><style type="text/css"></style></defs><path d="M924.8 461.792l-128.496 6.624-109.296 22.896s-15.312 88.464-67.92 150.672c-40.608 48-101.136 99.648-187.584 118.896 0 0-36.912 8.832-55.392 54.624s-48.528 135.12-48.528 135.12L249.824 992l228.48-420.912S208.496 471.392 99.2 195.2l470.4 227.424s52.416-51.648 127.584-53.136c0 0 73.104 2.928 79.728 80.496z" p-id="13143" fill="#1296db"></path><path d="M314.816 32l247.392 352.224-247.392-255.504S308.384 43.808 314.816 32zM202.784 93.296l352.224 304.224-326.4-193.44s-32.688-65.76-25.824-110.784zM162.704 375.392L185.6 401.216a164.832 164.832 0 0 0 42.096 141.072A229.152 229.152 0 0 0 396.8 620.576s-156.576 25.104-225.216-131.472c0 0-22.176-56.88-8.88-113.712z" p-id="13144" fill="#1296db"></path></svg>