<?xml version="1.0" standalone="no"?><!DOCTYPE svg PUBLIC "-//W3C//DTD SVG 1.1//EN" "http://www.w3.org/Graphics/SVG/1.1/DTD/svg11.dtd"><svg t="1562596706526" class="icon" viewBox="0 0 1024 1024" version="1.1" xmlns="http://www.w3.org/2000/svg" p-id="9102" width="32" height="32" xmlns:xlink="http://www.w3.org/1999/xlink"><defs><style type="text/css"></style></defs><path d="M634.695111 116.152889c-11.847111 51.584-32.938667 177.806222 8.689778 296.561778 4.494222 12.828444 10.936889 28.017778 19.697778 46.464a42.666667 42.666667 0 0 0 80.071111-8.476445c4.551111-19.285333 10.040889-36.736 16.312889-51.911111 13.425778-32.654222 33.834667-51.84 49.208889-62.421333-1.749333 28.643556 1.863111 76.643556 30.904888 137.358222 31.559111 65.877333 37.603556 103.054222 29.340445 180.878222-17.834667 168.220444-150.954667 281.244444-331.235556 281.244445-14.506667 0-29.383111-0.753778-44.188444-2.261334-99.114667-10.012444-183.751111-52.536889-238.321778-119.708444-50.787556-62.520889-72.789333-141.127111-63.644444-227.342222 7.281778-68.693333 46.535111-140.984889 69.688889-178.545778 5.76 25.756444 15.388444 61.568 28.999111 88.192 16.042667 31.502222 34.318222 55.409778 55.850666 73.088a42.666667 42.666667 0 0 0 69.390223-38.371556c-4.920889-38.670222-9.571556-115.470222 14.592-195.299555 46.72-154.183111 158.165333-204.714667 204.643555-219.448889m18.588445-47.872c-1.720889 0-3.456 0.142222-5.191112 0.440889-7.879111 1.393778-192.810667 36.465778-258.858666 254.506666-24.049778 79.431111-22.926222 159.345778-16.085334 213.063112-17.038222-13.980444-31.473778-33.095111-44.899555-59.477334-20.010667-39.168-31.118222-107.192889-31.232-107.889778a29.098667 29.098667 0 0 0-28.970667-24.248888 29.724444 29.724444 0 0 0-24.220444 12.103111c-3.370667 4.664889-83.114667 115.754667-94.734222 225.251555-21.873778 206.136889 119.054222 371.655111 340.096 393.998222 16.426667 1.664 32.597333 2.474667 48.483555 2.474667 199.580444 0 353.422222-128.469333 373.674667-319.402667 9.045333-85.276444 1.607111-130.972444-33.294222-203.804444-38.584889-80.668444-24.618667-133.376-24.092445-135.281778a28.273778 28.273778 0 0 0-7.765333-28.814222 29.952 29.952 0 0 0-29.738667-6.670222c-2.631111 0.839111-65.066667 21.688889-96.455111 98.033778-7.964444 19.271111-13.895111 39.352889-18.375111 58.325333-7.054222-14.876444-13.553778-29.681778-17.976889-42.296889-48.739556-138.993778-2.588444-291.655111-2.176-293.191111a28.231111 28.231111 0 0 0-6.144-27.448889c-5.688889-6.172444-13.667556-9.671111-22.044444-9.671111z" p-id="9103" fill="#d4237a"></path></svg>