<?xml version="1.0" standalone="no"?><!DOCTYPE svg PUBLIC "-//W3C//DTD SVG 1.1//EN" "http://www.w3.org/Graphics/SVG/1.1/DTD/svg11.dtd"><svg t="1562855820881" class="icon" viewBox="0 0 1075 1024" version="1.1" xmlns="http://www.w3.org/2000/svg" p-id="13964" width="33.59375" height="32" xmlns:xlink="http://www.w3.org/1999/xlink"><defs><style type="text/css"></style></defs><path d="M209.92 199.68h363.52V256H209.92zM209.92 389.12h573.44v56.32H209.92z" fill="#333333" p-id="13965"></path><path d="M1049.6 568.32c-5.12-10.24-15.36-17.92-28.16-17.92H701.44c-69.12 0-128 53.76-128 120.32v273.92H148.48c-48.64 0-89.6-38.4-89.6-84.48V151.04c0-46.08 40.96-84.48 89.6-84.48h750.08c48.64 0 89.6 38.4 89.6 84.48V384H1049.6V151.04c0-76.8-66.56-140.8-148.48-140.8H148.48C66.56 10.24 0 74.24 0 151.04v709.12c0 76.8 66.56 140.8 148.48 140.8h458.24c7.68 0 12.8-2.56 17.92-7.68l417.28-394.24c10.24-7.68 12.8-20.48 7.68-30.72zM634.88 903.68v-232.96c0-35.84 30.72-64 66.56-64h248.32L634.88 903.68z" fill="#333333" p-id="13966"></path></svg>