<?xml version="1.0" standalone="no"?><!DOCTYPE svg PUBLIC "-//W3C//DTD SVG 1.1//EN" "http://www.w3.org/Graphics/SVG/1.1/DTD/svg11.dtd"><svg t="1562596733611" class="icon" viewBox="0 0 1024 1024" version="1.1" xmlns="http://www.w3.org/2000/svg" p-id="10069" xmlns:xlink="http://www.w3.org/1999/xlink" width="32" height="32"><defs><style type="text/css"></style></defs><path d="M471.27446 163.464979c-161.477718 18.11252-289.595654 146.332786-307.810504 307.810504-25.275663 224.104057 160.966065 411.983075 384.558469 389.777331 165.16162-16.47523 296.554136-147.867746 313.029366-313.029366C883.257535 324.328713 695.378517 138.189316 471.27446 163.464979zM512.002047 835.777151c-175.087691 0-317.634244-138.862651-323.671751-312.517713-6.446829-186.958042 147.867746-341.374948 334.825788-335.030449 173.655062 5.935176 312.620044 148.58406 312.620044 323.671751C835.776128 690.876993 690.87597 835.777151 512.002047 835.777151zM603.485621 302.020638l-61.09138 112.461351c-16.270569 30.494525-26.196639 50.858318-29.77821 60.886719l-1.125637 0c-10.642384-24.354688-40.829917-81.762165-90.460268-172.427094-0.306992-0.511653-0.920976-0.920976-1.534959-0.920976l-13.916964 0c-7.572466 0-12.484336 8.084119-8.902764 14.83794l88.106664 165.980265c0.613984 1.125637-0.204661 2.558265-1.534959 2.558265l-87.390349 0c-7.470135 0-13.507642 6.037507-13.507642 13.507642l0 0c0 7.470135 6.037507 13.507642 13.507642 13.507642l98.237395 0c0.920976 0 1.739621 0.818645 1.739621 1.739621l0 65.900919c0 0.920976-0.818645 1.739621-1.739621 1.739621l-98.339726 0c-7.367805 0-13.405311 5.935176-13.405311 13.405311l0 0c0 7.777127 6.344498 14.121626 14.121626 14.121626l97.623411 0c0.920976 0 1.739621 0.818645 1.739621 1.739621l0 78.487585c0 8.084119 6.54916 14.633279 14.633279 14.633279l0 0c8.084119 0 14.633279-6.54916 14.633279-14.633279l0-78.487585c0-0.920976 0.818645-1.739621 1.739621-1.739621l94.348831 0c7.674796 0 13.814634-6.242168 13.814634-13.814634l0 0c0-7.572466-6.139837-13.609972-13.609972-13.609972l-94.553493 0c-0.920976 0-1.739621-0.818645-1.739621-1.739621l0-65.900919c0-0.920976 0.818645-1.739621 1.739621-1.739621l94.860485 0c7.265474 0 13.20065-5.935176 13.20065-13.20065l0 0c0-7.674796-6.242168-13.916964-13.916964-13.916964l-80.329537 0c-1.330298 0-2.148943-1.432629-1.534959-2.558265l88.925309-165.980265c3.581572-6.753821-1.227967-14.94027-8.902764-14.94027L603.485621 302.020638 603.485621 302.020638z" p-id="10070" fill="#ea9518"></path></svg>