<?xml version="1.0" standalone="no"?><!DOCTYPE svg PUBLIC "-//W3C//DTD SVG 1.1//EN" "http://www.w3.org/Graphics/SVG/1.1/DTD/svg11.dtd"><svg t="1562596819891" class="icon" viewBox="0 0 1024 1024" version="1.1" xmlns="http://www.w3.org/2000/svg" p-id="11964" xmlns:xlink="http://www.w3.org/1999/xlink" width="32" height="32"><defs><style type="text/css"></style></defs><path d="M280.63287354 886.02432251a18.2345581 18.2345581 0 0 1-17.97747803-21.31869507l42.52120972-247.91336059L125.05822753 441.2189331a18.2411499 18.2411499 0 0 1-4.61508178-18.69433593 18.2444458 18.2444458 0 0 1 14.72277832-12.41317749l248.91696167-36.16918945L495.40350342 148.3824768a18.23867798 18.23867798 0 0 1 32.70849609 0l111.3197937 225.55975343 248.91860962 36.16918945a18.23867798 18.23867798 0 0 1 10.10604858 31.10751342l-180.12084961 175.57333375 42.52120973 247.91336059a18.23867798 18.23867798 0 0 1-26.46112061 19.22497558L511.75692749 766.88006592 289.11569214 883.93060302a18.23950195 18.23950195 0 0 1-8.48529053 2.09371949zM176.97769165 440.89181518l160.5267334 156.47277833a18.2477417 18.2477417 0 0 1 5.24542237 16.14248657l-37.89624024 220.94219971L503.27410888 730.13327026a18.2411499 18.2411499 0 0 1 16.97305299 0l198.41885375 104.31600953-37.89624023-220.94219971a18.24856568 18.24856568 0 0 1 5.24542237-16.14248657l160.52590942-156.47277833-221.83868408-32.23471069a18.24279786 18.24279786 0 0 1-13.73318482-9.97668457L511.75939941 197.65863037 412.5479126 398.68041992a18.23950195 18.23950195 0 0 1-13.73071289 9.97668457l-221.84115601 32.23471069z" p-id="11965" fill="#ea9518"></path></svg>