<?xml version="1.0" standalone="no"?><!DOCTYPE svg PUBLIC "-//W3C//DTD SVG 1.1//EN" "http://www.w3.org/Graphics/SVG/1.1/DTD/svg11.dtd"><svg t="1564885940347" class="icon" viewBox="0 0 1024 1024" version="1.1" xmlns="http://www.w3.org/2000/svg" p-id="15545" width="48" height="48" xmlns:xlink="http://www.w3.org/1999/xlink"><defs><style type="text/css"></style></defs><path d="M734.291271 517.555529c-27.943422 123.244952-103.597473 184.805006-226.995921 184.805006-123.535571 0-199.190645-61.559031-227.130997-184.805006l-34.481326 0c17.532305 159.158906 115.564016 254.909667 261.908058 254.909667 146.1885 0 244.788146-95.750761 262.322497-254.909667L734.291271 517.555529zM654.487713 291.563472c-29.485545 0-53.43398 31.921014-53.43398 71.244624 0 39.33282 23.947412 71.245647 53.43398 71.245647 29.484521 0 53.43398-31.91385 53.43398-71.245647C707.921693 323.484486 683.972235 291.563472 654.487713 291.563472zM366.796432 291.995307c-29.484521 0-53.432956 31.914874-53.432956 71.245647 0 39.324634 23.948435 71.244624 53.432956 71.244624 29.500894 0 53.43398-31.91999 53.43398-71.244624C420.230412 323.910181 396.297326 291.995307 366.796432 291.995307zM512.000512 939.467745c-236.095159 0-427.465698-191.368492-427.465698-427.467745 0-236.103346 191.370539-427.466722 427.465698-427.466722 236.094136 0 427.464675 191.364399 427.464675 427.466722C939.464163 748.099253 748.094648 939.467745 512.000512 939.467745z" p-id="15546" fill="#1afa29"></path></svg>