<?xml version="1.0" standalone="no"?><!DOCTYPE svg PUBLIC "-//W3C//DTD SVG 1.1//EN" "http://www.w3.org/Graphics/SVG/1.1/DTD/svg11.dtd"><svg t="1564885730086" class="icon" viewBox="0 0 1024 1024" version="1.1" xmlns="http://www.w3.org/2000/svg" p-id="8919" width="48" height="48" xmlns:xlink="http://www.w3.org/1999/xlink"><defs><style type="text/css"></style></defs><path d="M512 170.666667c187.733333 0 341.333333 153.6 341.333333 341.333333s-153.6 341.333333-341.333333 341.333333-341.333333-153.6-341.333333-341.333333 153.6-341.333333 341.333333-341.333333zM366.933333 418.133333v34.133334c0 17.066667 17.066667 34.133333 34.133334 34.133333s34.133333-17.066667 34.133333-34.133333v-34.133334c0-17.066667-17.066667-34.133333-34.133333-34.133333s-34.133333 17.066667-34.133334 34.133333z m221.866667 0v34.133334c0 17.066667 17.066667 34.133333 34.133333 34.133333s34.133333-17.066667 34.133334-34.133333v-34.133334c0-17.066667-17.066667-34.133333-34.133334-34.133333s-34.133333 17.066667-34.133333 34.133333z m46.933333 273.066667c17.066667 4.266667 29.866667-8.533333 29.866667-25.6 0-8.533333-4.266667-17.066667-12.8-25.6-46.933333-21.333333-93.866667-34.133333-140.8-34.133333-46.933333 0-93.866667 12.8-140.8 34.133333l-4.266667 4.266667c-4.266667 4.266667-8.533333 12.8-8.533333 21.333333 0 17.066667 12.8 25.6 25.6 25.6h8.533333c38.4-17.066667 76.8-29.866667 119.466667-29.866667 42.666667 0 81.066667 8.533333 123.733333 29.866667z" fill="#d0021b" p-id="8920"></path></svg>