<?xml version="1.0" standalone="no"?><!DOCTYPE svg PUBLIC "-//W3C//DTD SVG 1.1//EN" "http://www.w3.org/Graphics/SVG/1.1/DTD/svg11.dtd"><svg t="1562855936445" class="icon" viewBox="0 0 1024 1024" version="1.1" xmlns="http://www.w3.org/2000/svg" p-id="15430" width="32" height="32" xmlns:xlink="http://www.w3.org/1999/xlink"><defs><style type="text/css"></style></defs><path d="M240.64 3.584C110.592 3.584 5.12 109.056 5.12 239.104s105.472 235.52 235.52 235.52h235.52v-235.52c0.512-130.048-104.96-235.52-235.52-235.52z m779.776 235.52c0-130.048-105.472-235.52-235.52-235.52s-235.52 105.472-235.52 235.52v235.52h235.52c130.048 0.512 235.52-104.96 235.52-235.52zM5.12 783.36c0 130.048 105.472 235.52 235.52 235.52s235.52-105.472 235.52-235.52v-235.52H240.64c-130.048 0-235.52 104.96-235.52 235.52z m779.776-235.52h-235.52v235.52c0 130.048 105.472 235.52 235.52 235.52s235.52-105.472 235.52-235.52c0-130.56-105.472-235.52-235.52-235.52z" p-id="15431" fill="#1296db"></path></svg>