<?xml version="1.0" standalone="no"?><!DOCTYPE svg PUBLIC "-//W3C//DTD SVG 1.1//EN" "http://www.w3.org/Graphics/SVG/1.1/DTD/svg11.dtd"><svg t="1559444861162" class="icon" style="" viewBox="0 0 1024 1024" version="1.1" xmlns="http://www.w3.org/2000/svg" p-id="4035" xmlns:xlink="http://www.w3.org/1999/xlink" width="16" height="16"><defs><style type="text/css"></style></defs><path d="M1009.066667 403.2l-151.466667-320c-6.4-12.8-17.066667-19.2-29.866667-19.2H217.6c-12.8 0-23.466667 6.4-29.866667 19.2l-153.6 320c-4.266667 10.666667-4.266667 21.333333 2.133334 29.866667 6.4 8.533333 17.066667 14.933333 27.733333 14.933333h74.666667v448H106.666667c-17.066667 0-32 14.933333-32 32S87.466667 960 106.666667 960h832c17.066667 0 32-14.933333 32-32S955.733333 896 938.666667 896h-32V448H981.333333c10.666667 0 21.333333-6.4 27.733334-14.933333 4.266667-8.533333 4.266667-21.333333 0-29.866667zM842.666667 896h-640V448h640v448zM115.2 384l121.6-256h569.6l121.6 256H115.2z" fill="#acacac" p-id="4036"></path><path d="M362.666667 704c17.066667 0 32-14.933333 32-32v-128c0-17.066667-14.933333-32-32-32s-32 14.933333-32 32v128c0 17.066667 12.8 32 32 32z" fill="#acacac" p-id="4037"></path></svg>