<?xml version="1.0" standalone="no"?><!DOCTYPE svg PUBLIC "-//W3C//DTD SVG 1.1//EN" "http://www.w3.org/Graphics/SVG/1.1/DTD/svg11.dtd"><svg t="1562596770966" class="icon" viewBox="0 0 1024 1024" version="1.1" xmlns="http://www.w3.org/2000/svg" p-id="11095" xmlns:xlink="http://www.w3.org/1999/xlink" width="32" height="32"><defs><style type="text/css"></style></defs><path d="M512 1024C228.430769 1024 0 795.569231 0 512S228.430769 0 512 0s512 228.430769 512 512-228.430769 512-512 512z m0-945.230769C271.753846 78.769231 78.769231 271.753846 78.769231 512s192.984615 433.230769 433.230769 433.230769 433.230769-192.984615 433.230769-433.230769S752.246154 78.769231 512 78.769231z" fill="#08a993" p-id="11096"></path><path d="M484.430769 606.523077c-23.630769 0-39.384615-15.753846-39.384615-39.384615V200.861538c0-23.630769 15.753846-39.384615 39.384615-39.384615s39.384615 15.753846 39.384616 39.384615v362.338462c0 23.630769-15.753846 43.323077-39.384616 43.323077z" fill="#08a993" p-id="11097"></path><path d="M638.030769 823.138462c-11.815385 0-23.630769-7.876923-31.507692-15.753847l-165.415385-236.307692c-11.815385-19.692308-7.876923-43.323077 11.815385-55.138461 19.692308-11.815385 43.323077-7.876923 55.138461 11.815384l165.415385 236.307692c11.815385 19.692308 7.876923 43.323077-11.815385 55.138462-7.876923 3.938462-15.753846 3.938462-23.630769 3.938462z" fill="#08a993" p-id="11098"></path></svg>