<?xml version="1.0" standalone="no"?><!DOCTYPE svg PUBLIC "-//W3C//DTD SVG 1.1//EN" "http://www.w3.org/Graphics/SVG/1.1/DTD/svg11.dtd"><svg t="1561881041470" class="icon" viewBox="0 0 1068 1024" version="1.1" xmlns="http://www.w3.org/2000/svg" p-id="8786" width="16.6875" height="16" xmlns:xlink="http://www.w3.org/1999/xlink"><defs><style type="text/css"></style></defs><path d="M593.519304 877.078261c-32.723478-17.207652-85.659826-17.274435-118.516869 0l-241.574957 126.998261c-21.74887 11.419826-35.973565 0.845913-31.833043-23.151305l46.124522-269.000347c6.233043-36.441043-10.061913-86.817391-36.619131-112.706783L15.649391 408.709565c-17.586087-17.14087-11.931826-33.925565 12.154435-37.442782l270.113391-39.245913c36.574609-5.320348 79.449043-36.374261 95.877566-69.676522L514.582261 17.630609c10.863304-22.038261 28.582957-21.815652 39.357217 0l120.787479 244.758261c16.361739 33.168696 59.169391 64.333913 95.877565 69.676521l270.113391 39.223652c24.286609 3.539478 29.606957 20.457739 12.154435 37.442783l-195.450435 190.508522c-26.490435 25.822609-42.896696 76.132174-36.61913 112.706782l46.146782 269.022609c4.140522 24.197565-10.306783 34.459826-31.833043 23.129044l-241.597218-127.020522z" p-id="8787" fill="#d1d1d1"></path></svg>