<?xml version="1.0" standalone="no"?><!DOCTYPE svg PUBLIC "-//W3C//DTD SVG 1.1//EN" "http://www.w3.org/Graphics/SVG/1.1/DTD/svg11.dtd"><svg t="1564649691505" class="icon" viewBox="0 0 1024 1024" version="1.1" xmlns="http://www.w3.org/2000/svg" p-id="7930" width="32" height="32" xmlns:xlink="http://www.w3.org/1999/xlink"><defs><style type="text/css"></style></defs><path d="M329.6256 86.4h364.8V25.6h-364.8v60.8zM25.6 208.0768h972.8512V147.2768H25.6v60.8z m547.3024 547.3024h60.8V329.728h-60.8v425.6512z m-182.4256 0h60.8V329.728h-60.8v425.6512z m425.5744 121.472a60.8 60.8 0 0 1-60.8 60.8768H268.8a60.8 60.8 0 0 1-60.8-60.8256V268.8256H147.1488v608.0256A121.5232 121.5232 0 0 0 268.7488 998.4H755.2a121.4976 121.4976 0 0 0 121.4976-121.6V268.8H815.872v608.0512h0.1792z" p-id="7931" fill="#8a8a8a"></path></svg>