<?xml version="1.0" standalone="no"?><!DOCTYPE svg PUBLIC "-//W3C//DTD SVG 1.1//EN" "http://www.w3.org/Graphics/SVG/1.1/DTD/svg11.dtd"><svg t="1552531451683" class="icon" style="" viewBox="0 0 1024 1024" version="1.1" xmlns="http://www.w3.org/2000/svg" p-id="3138" xmlns:xlink="http://www.w3.org/1999/xlink" width="64" height="64"><defs><style type="text/css"></style></defs><path d="M921.6 824.32v20.48c0 40.96-35.84 76.8-76.8 76.8h-665.6c-40.96 0-76.8-35.84-76.8-76.8v-20.48c15.36-117.76 76.8-225.28 168.96-291.84-30.72-46.08-46.08-97.28-46.08-153.6C230.4 230.4 358.4 102.4 512 102.4c153.6 0 281.6 128 281.6 281.6 0 56.32-15.36 107.52-46.08 153.6 92.16 66.56 158.72 168.96 174.08 286.72z m-230.4-204.8L609.28 563.2l51.2-81.92c20.48-30.72 30.72-61.44 30.72-97.28C691.2 286.72 609.28 204.8 512 204.8S332.8 286.72 332.8 384c0 35.84 10.24 66.56 30.72 97.28l51.2 81.92-81.92 56.32c-66.56 46.08-112.64 117.76-122.88 199.68h604.16c-10.24-81.92-56.32-153.6-122.88-199.68z" fill="#ffffff" p-id="3139"></path></svg>