<?xml version="1.0" standalone="no"?><!DOCTYPE svg PUBLIC "-//W3C//DTD SVG 1.1//EN" "http://www.w3.org/Graphics/SVG/1.1/DTD/svg11.dtd"><svg t="1562855707135" class="icon" viewBox="0 0 1024 1024" version="1.1" xmlns="http://www.w3.org/2000/svg" p-id="10539" width="32" height="32" xmlns:xlink="http://www.w3.org/1999/xlink"><defs><style type="text/css"></style></defs><path d="M140.167 339.465c0 20.908-16.943 37.85-37.85 37.85-20.908 0-37.851-16.943-37.851-37.85 0-20.909 16.944-37.85 37.85-37.85 20.908-0.002 37.85 16.941 37.85 37.85zM551.156 222.252c0 20.908-16.952 37.85-37.849 37.85-20.91 0-37.853-16.943-37.853-37.85s16.943-37.851 37.853-37.851c20.897-0.001 37.85 16.944 37.85 37.85zM958.409 339.465c0 20.908-16.97 37.85-37.87 37.85-20.899 0-37.835-16.943-37.835-37.85 0-20.909 16.936-37.85 37.835-37.85 20.9-0.002 37.87 16.941 37.87 37.85zM140.167 387.66l52.664 336.8h623.145l66.73-336.8-186.907 119.675-182.492-220.56L327.841 497.45zM818.931 805.31c0 14.343-11.632 25.976-25.976 25.976H218.808c-14.345 0-25.976-11.633-25.976-25.977 0-14.344 11.632-25.975 25.976-25.975h574.148c14.343 0 25.975 11.63 25.975 25.975z" fill="#F4EA2A" p-id="10540"></path></svg>