<?xml version="1.0" standalone="no"?><!DOCTYPE svg PUBLIC "-//W3C//DTD SVG 1.1//EN" "http://www.w3.org/Graphics/SVG/1.1/DTD/svg11.dtd"><svg t="1564994612978" class="icon" viewBox="0 0 1024 1024" version="1.1" xmlns="http://www.w3.org/2000/svg" p-id="24313" width="48" height="48" xmlns:xlink="http://www.w3.org/1999/xlink"><defs><style type="text/css"></style></defs><path d="M512 512m-512 0a512 512 0 1 0 1024 0 512 512 0 1 0-1024 0Z" fill="#24D13D" p-id="24314"></path><path d="M443.258435 575.532522c-34.637913 17.67513-39.802435-9.97287-39.802435-9.97287l-43.408696-92.827826c-16.695652-44.121043 14.469565-19.901217 14.469566-19.901217s26.713043 18.521043 47.014956 29.829565c20.301913 11.308522 43.408696 3.33913 43.408696 3.33913l283.870608-120.07513C696.409043 306.176 609.903304 267.130435 511.955478 267.130435 352.166957 267.130435 222.608696 371.044174 222.608696 499.266783c0 73.728 42.918957 139.353043 109.701565 181.915826l-12.02087 63.488s-5.87687 18.521043 14.469566 9.928348c13.890783-5.87687 49.241043-26.89113 70.299826-39.624348 33.079652 10.551652 69.142261 16.428522 106.941217 16.428521 159.833043 0 289.391304-103.958261 289.391304-232.136347 0-37.13113-10.907826-72.214261-30.274782-103.334957-90.37913 49.864348-300.744348 165.754435-327.858087 179.600696z" fill="#FFFFFF" p-id="24315"></path></svg>